<svg width="28" height="28" viewBox="0 0 28 28" fill="none" xmlns="http://www.w3.org/2000/svg">
<path fill-rule="evenodd" clip-rule="evenodd" d="M1.01633e-05 25C1.01633e-05 26.6569 1.34316 28 3.00001 28H25C26.6569 28 28 26.6568 28 25V13C28 12.4477 27.5523 12 27 12C26.4477 12 26 12.4477 26 13V25C26 25.5523 25.5523 26 25 26H3C2.44771 26 1.99999 25.5523 1.99999 25V3.00001C1.99999 2.44772 2.44771 2 3 2H16C16.5523 2 17 1.55229 17 1C17 0.447716 16.5523 0 16 0H3C1.34314 0 0 1.34315 0 3L1.01633e-05 25Z" fill="white"/>
</svg>
