<svg width="22" height="4" viewBox="0 0 22 4" fill="none" xmlns="http://www.w3.org/2000/svg">
<mask id="mask0_0_128" style="mask-type:luminance" maskUnits="userSpaceOnUse" x="0" y="0" width="24" height="4">
<path fill-rule="evenodd" clip-rule="evenodd" d="M0 0H24V4H0V0Z" fill="white"/>
</mask>
<g mask="url(#mask0_0_128)">
<path fill-rule="evenodd" clip-rule="evenodd" d="M2 4C3.10457 4 4 3.10457 4 2C4 0.895431 3.10457 0 2 0C0.895431 0 0 0.895431 0 2C0 3.10457 0.895431 4 2 4Z" fill="#C7C7C7"/>
<path fill-rule="evenodd" clip-rule="evenodd" d="M8 4C9.10457 4 10 3.10457 10 2C10 0.895431 9.10457 0 8 0C6.89543 0 6 0.895431 6 2C6 3.10457 6.89543 4 8 4Z" fill="#C7C7C7"/>
<path fill-rule="evenodd" clip-rule="evenodd" d="M14 4C15.1046 4 16 3.10457 16 2C16 0.895431 15.1046 0 14 0C12.8954 0 12 0.895431 12 2C12 3.10457 12.8954 4 14 4Z" fill="#C7C7C7"/>
<path fill-rule="evenodd" clip-rule="evenodd" d="M20 4C21.1046 4 22 3.10457 22 2C22 0.895431 21.1046 0 20 0C18.8954 0 18 0.895431 18 2C18 3.10457 18.8954 4 20 4Z" fill="#C7C7C7"/>
</g>
</svg>
